<?xml version="1.0" encoding="UTF-8" standalone="no"?>
<!-- Created with Inkscape (http://www.inkscape.org/) -->

<svg
   width="268.09476mm"
   height="192.74884mm"
   viewBox="0 0 268.09476 192.74884"
   version="1.1"
   id="svg1"
   xml:space="preserve"
   inkscape:export-filename="Profile2.svg"
   inkscape:export-xdpi="96"
   inkscape:export-ydpi="96"
   xmlns:inkscape="http://www.inkscape.org/namespaces/inkscape"
   xmlns:sodipodi="http://sodipodi.sourceforge.net/DTD/sodipodi-0.dtd"
   xmlns="http://www.w3.org/2000/svg"
   xmlns:svg="http://www.w3.org/2000/svg"><sodipodi:namedview
     id="namedview1"
     pagecolor="#ffffff"
     bordercolor="#000000"
     borderopacity="0.25"
     inkscape:showpageshadow="2"
     inkscape:pageopacity="0.0"
     inkscape:pagecheckerboard="0"
     inkscape:deskcolor="#d1d1d1"
     inkscape:document-units="mm"><inkscape:page
       x="0"
       y="0"
       width="268.09476"
       height="192.74884"
       id="page2"
       margin="0"
       bleed="0" /></sodipodi:namedview><defs
     id="defs1" /><g
     inkscape:label="Capa 1"
     inkscape:groupmode="layer"
     id="layer1"
     transform="translate(-139.62813,-96.441462)"><path
       style="fill:#ffffff;fill-opacity:1"
       d="m 174.35246,288.59427 -1.17841,-0.59531 -0.59468,-0.89492 c -0.32708,-0.4922 -0.71433,-1.32564 -0.86056,-1.85208 -0.14623,-0.52644 -0.26587,-1.55248 -0.26587,-2.28008 0,-0.72761 0.11964,-1.75364 0.26587,-2.28008 0.14623,-0.52645 0.53293,-1.35345 0.85932,-1.83778 l 0.59345,-0.88062 0.92514,-0.5418 0.92514,-0.5418 2.38125,-0.13396 2.38125,-0.13396 -0.0599,-0.80683 c -0.033,-0.44376 -0.55035,-2.34876 -1.14972,-4.23333 l -1.08977,-3.42651 -1.54256,-3.23794 c -0.84841,-1.78087 -2.14339,-4.23264 -2.87774,-5.44838 l -1.33517,-2.21045 -1.46265,-1.63922 -1.46265,-1.63922 v -0.74274 -0.74274 l 0.55751,-0.50403 0.5575,-0.50403 1.22843,0.042 1.22844,0.042 1.32011,0.57108 c 0.72606,0.3141 2.27831,1.20864 3.44943,1.98788 l 2.12932,1.4168 2.13229,2.22105 2.1323,2.22105 1.1097,1.8679 c 0.61034,1.02735 1.51092,2.81922 2.00129,3.98195 0.49038,1.16273 1.26815,3.28958 1.72839,4.72635 0.46024,1.43676 0.90233,2.67307 0.98243,2.74735 0.0801,0.0743 0.0653,-1.35323 -0.0329,-3.17224 -0.0982,-1.81902 -0.35542,-4.70992 -0.57159,-6.42424 -0.21618,-1.71432 -0.63306,-4.45276 -0.92641,-6.08542 -0.29335,-1.63266 -0.87879,-4.33769 -1.30097,-6.01118 -0.42219,-1.67349 -1.31202,-4.63122 -1.97741,-6.57273 -0.66539,-1.94151 -1.44476,-3.9906 -1.73195,-4.55352 -0.28718,-0.56293 -0.52215,-1.2742 -0.52215,-1.5806 0,-0.30641 0.11593,-0.77371 0.25761,-1.03844 l 0.2576,-0.48134 0.66888,-0.16788 0.66888,-0.16788 0.99175,0.51295 0.99174,0.51295 1.23144,1.27814 1.23144,1.27814 1.52981,2.36513 c 0.8414,1.30081 2.08845,3.50347 2.77121,4.89479 0.68276,1.39132 1.54551,3.30375 1.9172,4.24985 0.3717,0.94611 0.98206,2.77695 1.35635,4.06854 0.37429,1.2916 0.9165,3.55361 1.20491,5.02669 0.28841,1.47309 0.7046,4.16306 0.92486,5.97773 0.22027,1.81466 0.40049,3.921 0.40049,4.68074 v 1.38135 l 0.23286,0.14391 0.23286,0.14391 0.29046,-2.04652 c 0.15975,-1.1256 0.41909,-4.0706 0.57631,-6.54445 0.15722,-2.47385 0.37925,-7.18107 0.4934,-10.46047 l 0.20754,-5.96256 0.37296,-0.77816 0.37297,-0.77817 0.71981,-0.25314 0.71981,-0.25314 0.67191,0.35959 0.6719,0.35959 0.66263,1.35437 0.66263,1.35436 0.77768,3.0793 c 0.42773,1.69361 0.966,4.44099 1.19616,6.10528 l 0.41846,3.02599 -1.07175,2.43547 c -0.58946,1.33951 -2.02269,4.44508 -3.18496,6.90127 -1.16227,2.45619 -2.11322,4.64998 -2.11322,4.87509 v 0.40929 h 1.20802 1.20802 l 0.52177,-0.27925 0.52178,-0.27924 1.28186,-2.69732 c 0.70503,-1.48352 3.14862,-6.56685 5.43021,-11.29628 2.2816,-4.72942 6.78615,-14.05226 10.01012,-20.71741 l 5.86176,-12.11845 0.935,-0.58155 0.935,-0.58154 9.4805,-0.1323 9.48049,-0.13229 0.38435,-0.52605 0.38434,-0.52605 -0.45655,-0.33385 -0.45656,-0.33384 h -4.3282 -4.32819 l -0.74493,-0.38522 -0.74494,-0.38522 -0.43255,-0.91154 -0.43255,-0.91153 0.002,-3.53189 0.002,-3.53189 0.51148,-0.77591 c 0.28131,-0.42675 0.78655,-0.92855 1.12273,-1.1151 l 0.61126,-0.3392 1.73302,-0.009 1.73302,-0.009 0.3175,-0.3175 0.3175,-0.3175 v -14.36687 -14.36688 h -3.27422 c -1.80082,0 -3.65375,0.0759 -4.11763,0.16868 l -0.84341,0.16868 -3.31286,3.73393 -3.31287,3.73392 -3.88044,3.68029 c -2.13425,2.02416 -4.34417,4.28635 -4.91094,5.02708 -0.56676,0.74074 -1.31501,1.96178 -1.66277,2.71342 -0.34775,0.75165 -0.8047,2.1804 -1.01543,3.175 l -0.38316,1.80838 -0.005,2.67732 -0.005,2.67732 0.4091,2.34976 c 0.225,1.29237 0.94608,4.79054 1.60241,7.77372 0.65632,2.98318 1.38594,6.39209 1.62137,7.57536 l 0.42806,2.15139 -0.5543,1.28819 c -0.30487,0.7085 -1.58348,3.43131 -2.84135,6.05069 -1.25786,2.61937 -2.83307,5.92336 -3.50045,7.34218 -0.66739,1.41883 -1.31452,2.57969 -1.43809,2.57969 h -0.22467 v -0.70809 c 0,-0.38945 -1.01429,-5.76176 -2.25399,-11.93848 -1.23969,-6.17672 -2.54433,-12.40382 -2.89918,-13.83801 -0.35486,-1.43419 -0.99867,-3.49039 -1.4307,-4.56933 l -0.7855,-1.9617 -1.77352,-2.87293 c -0.97543,-1.5801 -3.17917,-4.95666 -4.89719,-7.50346 l -3.12369,-4.63054 -1.19534,-1.19029 -1.19534,-1.19029 -1.13684,-0.57817 c -0.62525,-0.31799 -2.43068,-1.18945 -4.01206,-1.93659 l -2.87523,-1.35843 -1.2271,-1.23841 -1.2271,-1.2384 -0.89402,-1.7198 c -0.49171,-0.94588 -1.26503,-2.1169 -1.7185,-2.60226 -0.45347,-0.48536 -1.16717,-1.06185 -1.58601,-1.2811 -0.41883,-0.21925 -1.3118,-0.55898 -1.98437,-0.75495 -0.67257,-0.19597 -2.21988,-0.54251 -3.43846,-0.77009 l -2.2156,-0.41378 -3.20836,0.57222 -3.20835,0.57222 -3.57188,0.0238 -3.57187,0.0238 -1.05834,-0.56716 c -0.58208,-0.31194 -1.29646,-0.83046 -1.5875,-1.15226 l -0.52916,-0.5851 v -1.27382 -1.27382 l 0.63421,-0.6751 0.63422,-0.6751 0.82099,-0.25354 c 0.45155,-0.13945 2.30927,-0.3907 4.12828,-0.55834 1.81901,-0.16764 3.75983,-0.42041 4.31293,-0.56171 l 1.00563,-0.2569 -0.18214,-0.58149 c -0.10018,-0.31983 -0.53683,-1.5133 -0.97034,-2.65216 l -0.7882,-2.07067 -0.36766,-0.14108 -0.36766,-0.14109 -1.70479,0.46147 -1.70479,0.46146 -1.94606,-0.12489 -1.94607,-0.12489 -1.45281,-0.66512 -1.45281,-0.66512 -0.9489,-0.83314 -0.94889,-0.83314 h -1.83528 -1.83528 l -1.34473,-0.39935 -1.34473,-0.39934 -1.27594,-0.85743 -1.27593,-0.85743 -0.60936,-0.90941 -0.60936,-0.90942 -0.42568,-1.46427 -0.42567,-1.46427 0.28903,-1.55421 0.28903,-1.5542 0.84794,-1.3214 0.84794,-1.32139 1.34623,-1.00158 1.34623,-1.00158 1.56174,-0.57355 1.56174,-0.57355 2.10896,-0.16263 2.10897,-0.16263 1.17457,-1.51251 c 0.64601,-0.83188 1.79216,-2.02086 2.547,-2.64219 l 1.37244,-1.12968 1.89995,-0.88752 c 1.04498,-0.48814 2.71186,-1.09049 3.70417,-1.33857 l 1.80421,-0.45105 3.7553,0.0415 3.75531,0.0415 1.27178,-1.13062 c 0.69948,-0.62184 1.84477,-1.52014 2.5451,-1.99623 0.70032,-0.4761 2.03519,-1.21108 2.96637,-1.63329 0.93118,-0.42222 2.56084,-1.00415 3.62147,-1.29317 1.06063,-0.28903 2.91682,-0.63458 4.12486,-0.76789 l 2.19644,-0.24239 2.9068,0.23366 2.90681,0.23366 2.13059,0.54399 c 1.17182,0.2992 2.96558,0.91734 3.98612,1.37366 l 1.85553,0.82968 0.83251,-0.34775 c 0.45788,-0.19126 1.64913,-0.62857 2.64722,-0.9718 l 1.81471,-0.62405 2.30327,-0.28005 2.30326,-0.28005 2.33924,0.29068 2.33923,0.29068 2.06934,0.79803 2.06934,0.79802 1.57801,1.16167 1.57802,1.16166 1.11383,1.40121 1.11382,1.4012 0.91567,1.91823 c 0.50362,1.05503 0.9729,1.91823 1.04283,1.91823 0.0699,0 3.64793,-2.82773 7.9511,-6.28385 4.30316,-3.45612 7.94249,-6.36206 8.0874,-6.45763 l 0.26346,-0.17377 -0.43872,-0.92455 c -0.2413,-0.5085 -0.43873,-1.15668 -0.43873,-1.44039 0,-0.28372 0.13011,-0.88907 0.28913,-1.34523 l 0.28912,-0.82939 5.73015,-4.58937 c 3.15158,-2.52415 13.82639,-11.05778 23.72181,-18.96361 l 17.99167,-14.374259 1.45521,-0.685539 1.4552,-0.685538 h 2.64584 2.64583 l 1.45521,0.688289 1.45521,0.68829 4.53886,3.677337 c 2.49637,2.02253 8.86621,7.19528 14.15521,11.49499 5.28899,4.29971 13.74186,11.17017 18.78415,15.26768 l 9.1678,7.45002 0.44069,1.15393 0.44069,1.15393 -0.43931,1.09793 c -0.24161,0.60386 -0.39825,1.20473 -0.34807,1.33526 0.0502,0.13053 3.54632,3.26001 7.76921,6.95442 4.22288,3.6944 8.72913,7.61006 10.01388,8.70147 l 2.33591,1.98437 0.61018,1.05833 0.61019,1.05834 0.17315,1.07826 0.17315,1.07826 -0.31089,1.23465 -0.31089,1.23465 -1.02315,1.16236 -1.02315,1.16236 -1.12881,0.4686 -1.1288,0.4686 -4.87402,0.12437 -4.87402,0.12437 -0.61608,0.61609 -0.61609,0.61608 v 21.67855 21.67855 l 0.47728,0.58942 0.47728,0.58941 2.39469,0.16934 2.39469,0.16934 0.45277,0.37577 c 0.24902,0.20667 0.62351,0.70594 0.83219,1.1095 l 0.37943,0.73373 v 4.00805 4.00805 l -0.40115,0.84536 -0.40115,0.84536 -0.85562,0.50545 -0.85562,0.50546 -6.21771,0.10264 -6.2177,0.10265 -0.48607,0.469 -0.48606,0.46901 2.40618,13.19877 c 1.3234,7.25933 2.82884,15.46096 3.34542,18.22586 0.51658,2.76489 1.3972,7.50134 1.95694,10.52544 l 1.0177,5.49836 0.33059,0.39833 0.33058,0.39833 2.27465,-0.0759 2.27465,-0.0759 0.13229,-13.45113 0.13229,-13.45112 0.62463,-0.50565 c 0.34354,-0.2781 0.81979,-0.50143 1.05833,-0.49627 0.23854,0.005 0.6916,0.15399 1.0068,0.33073 0.3152,0.17674 0.80514,0.61901 1.08875,0.98281 0.28362,0.3638 0.83013,1.28401 1.21447,2.04491 0.38433,0.7609 0.92971,2.01106 1.21193,2.77813 0.28223,0.76707 0.77524,2.4067 1.09558,3.64363 l 0.58243,2.24896 0.0121,3.0427 0.0121,3.04271 -0.25966,2.15185 -0.25966,2.15185 0.15109,1.42003 0.15108,1.42002 0.17402,-0.52916 c 0.0957,-0.29104 0.4269,-1.77933 0.73598,-3.30729 0.30908,-1.52797 0.91788,-4.20688 1.35288,-5.95313 0.435,-1.74625 1.153,-4.24656 1.59555,-5.55625 0.44255,-1.30969 1.43609,-3.69472 2.20786,-5.30008 l 1.40323,-2.91883 1.67535,-2.50513 1.67535,-2.50513 1.95428,-2.04594 1.95428,-2.04595 1.20525,-0.79832 1.20526,-0.79833 h 0.69547 0.69547 l 0.3175,0.3175 0.3175,0.3175 v 0.88238 0.88239 l -1.43997,2.70272 c -0.79199,1.4865 -2.03174,4.08796 -2.755,5.78103 -0.72327,1.69307 -1.73073,4.37198 -2.2388,5.95313 -0.50808,1.58114 -1.34603,4.72028 -1.86211,6.97585 -0.51609,2.25557 -1.16477,5.61909 -1.44153,7.47448 l -0.5032,3.37344 h 0.19478 c 0.10714,0 0.45966,-0.65261 0.7834,-1.45025 0.32374,-0.79763 1.18711,-2.49427 1.91861,-3.77031 0.7315,-1.27604 1.87944,-3.03436 2.55097,-3.90739 0.67154,-0.87303 2.05441,-2.39971 3.07306,-3.39262 l 1.85208,-1.80528 2.36258,-1.58848 c 1.29941,-0.87366 3.08535,-1.95622 3.96875,-2.40569 0.88339,-0.44946 2.61182,-1.14314 3.84094,-1.5415 l 2.23476,-0.7243 0.76999,0.0974 c 0.42349,0.0536 0.93589,0.23514 1.13867,0.40343 l 0.36869,0.30598 v 0.76135 0.76136 l -0.49042,0.46302 c -0.26973,0.25466 -1.16144,0.98583 -1.98158,1.62481 -0.82015,0.63898 -2.53521,2.24633 -3.81126,3.57187 -1.27605,1.32555 -2.98577,3.30306 -3.79937,4.39446 -0.8136,1.09141 -2.15205,3.10356 -2.97432,4.47146 -0.82227,1.36789 -1.80992,3.13067 -2.19478,3.91728 l -0.69974,1.43022 0.27314,0.27313 0.27313,0.27314 3.27083,0.1226 3.27083,0.12261 1.19062,0.58725 1.19063,0.58724 0.7473,1.44972 0.7473,1.44973 -0.0939,2.54781 -0.0939,2.54781 -0.74907,1.08091 -0.74907,1.0809 -1.11233,0.53847 -1.11233,0.53848 H 284.79647 175.53086 Z m 54.55607,-12.21095 0.44083,-0.1979 1.36131,-3.17181 1.36131,-3.17181 -0.0858,-0.44642 -0.0858,-0.44642 -5.81737,-0.0748 c -3.19955,-0.0411 -6.09007,-0.008 -6.42338,0.0739 l -0.606,0.14862 -1.58468,3.35282 -1.58468,3.35282 0.125,0.32573 0.12499,0.32573 0.87507,0.1209 c 0.48128,0.0665 3.25631,0.0952 6.16673,0.0637 l 5.29167,-0.0572 z m 23.92968,0.0596 c 0.1058,-0.17119 0.47468,-1.98689 0.81973,-4.03489 0.34505,-2.04801 1.81254,-11.02319 3.26109,-19.94485 1.44856,-8.92166 2.8147,-17.60171 3.03589,-19.28899 0.22118,-1.68729 0.35706,-3.11288 0.30196,-3.16798 -0.0551,-0.0551 -0.7015,1.24307 -1.43643,2.88483 -0.73494,1.64176 -2.91027,6.55689 -4.83408,10.92251 -1.92381,4.36563 -4.8366,10.91407 -6.47287,14.55209 -1.63626,3.63802 -4.06087,9.06828 -5.38802,12.06724 -1.32714,2.99897 -2.41299,5.57865 -2.41299,5.73264 0,0.15399 0.14883,0.34003 0.33073,0.41343 0.1819,0.0734 3.0919,0.14285 6.46667,0.15434 l 6.13595,0.0209 z m 70.95645,0.14167 0.60614,-0.16237 -0.0965,-0.29704 c -0.0531,-0.16337 -2.05222,-1.65429 -4.44259,-3.31314 -2.39038,-1.65885 -7.47485,-5.14644 -11.29883,-7.7502 -3.82398,-2.60376 -7.11624,-4.79686 -7.31613,-4.87356 l -0.36343,-0.13947 -4.19325,2.8384 c -2.30628,1.56113 -7.55676,5.15155 -11.66772,7.97873 -4.11097,2.82717 -7.47448,5.24034 -7.47448,5.36259 0,0.12224 0.20836,0.27671 0.46302,0.34326 0.25466,0.0666 10.5238,0.13319 22.82031,0.14808 l 22.35729,0.0271 z m 18.84075,-2.31766 c 0,-0.20382 -0.24229,-1.7814 -0.53842,-3.50573 -0.29613,-1.72433 -1.54268,-9.08827 -2.77011,-16.36431 -1.22743,-7.27605 -2.40321,-14.20552 -2.61284,-15.39883 -0.20963,-1.19332 -0.45839,-2.29465 -0.5528,-2.4474 -0.0944,-0.15275 -0.31752,-0.27773 -0.49581,-0.27773 -0.17828,0 -2.90583,1.75617 -6.06122,3.9026 -3.15538,2.14643 -7.79475,5.30775 -10.3097,7.02514 -2.51496,1.71739 -5.27781,3.62239 -6.13967,4.23333 -0.86186,0.61094 -1.61069,1.24392 -1.66406,1.40663 l -0.097,0.29582 5.50051,3.83951 c 3.02529,2.11174 5.99206,4.18127 6.59283,4.59897 0.60077,0.4177 3.7284,2.60493 6.9503,4.8605 3.2219,2.25557 7.19521,5.01954 8.82957,6.14216 1.63436,1.12261 3.06087,2.04535 3.17001,2.05052 0.10914,0.005 0.19844,-0.15736 0.19844,-0.36118 z m -74.60897,-4.83374 c 0.79842,-0.53405 5.32121,-3.65523 10.05063,-6.93597 4.72943,-3.28073 9.6393,-6.68355 10.91083,-7.56182 l 2.31186,-1.59685 -0.08,-0.26458 c -0.044,-0.14552 -1.85827,-1.50367 -4.03166,-3.0181 -2.17339,-1.51443 -6.62204,-4.58029 -9.8859,-6.81302 -3.26386,-2.23273 -6.08042,-4.05951 -6.25902,-4.05951 h -0.32474 l -0.18367,1.38907 c -0.10102,0.76398 -1.05232,7.22312 -2.11401,14.35364 -1.06169,7.13052 -1.99997,13.53013 -2.08506,14.22136 l -0.15471,1.25677 h 0.1969 c 0.1083,0 0.85017,-0.43695 1.64859,-0.97099 z m -31.67017,-10.73682 0.64203,-0.59532 0.8873,-2.0768 0.88729,-2.07681 -0.50681,-0.37059 -0.50681,-0.37059 h -5.09159 -5.09158 l -0.69575,0.26452 -0.69575,0.26453 -1.04126,2.25382 c -0.5727,1.23959 -1.04127,2.42152 -1.04127,2.62649 v 0.37267 l 0.46302,0.121 c 0.25466,0.0666 2.8674,0.13482 5.80608,0.1517 l 5.34306,0.0307 z m 68.31143,-14.8391 c 1.30969,-0.87631 6.60797,-4.50498 11.77396,-8.06371 5.16599,-3.55872 9.55308,-6.59774 9.74909,-6.75337 l 0.35638,-0.28297 -0.48868,-0.1923 -0.48867,-0.1923 -24.34167,-0.0145 -24.34166,-0.0145 -0.35124,0.22268 -0.35123,0.22267 1.67415,1.18438 c 0.92078,0.65141 5.30556,3.67118 9.74394,6.71061 4.43839,3.03942 9.31935,6.3816 10.84659,7.42705 l 2.7768,1.90083 0.53049,-0.2806 c 0.29178,-0.15433 1.60206,-0.99757 2.91175,-1.87388 z m -61.56138,-0.63903 0.54205,-0.46302 0.85167,-2.06195 0.85167,-2.06196 -0.24062,-0.24061 -0.24061,-0.24061 -5.29097,-0.0357 -5.29098,-0.0356 -0.42292,0.16831 -0.42292,0.16832 -1.09192,2.28293 -1.09192,2.28292 0.29047,0.34999 0.29046,0.34999 h 5.36225 5.36225 z m 101.06367,-30.01698 0.3175,-0.3175 v -21.10444 -21.10444 l -0.50057,-0.2679 -0.50057,-0.2679 -44.09371,-0.009 -44.09371,-0.009 -0.51718,0.27678 -0.51718,0.27679 v 21.2676 21.2676 l 0.33073,0.13345 c 0.1819,0.0734 20.33918,0.14285 44.79396,0.15434 l 44.46323,0.0209 z m -83.31086,-6.71509 -0.64143,-0.68258 -0.0783,-13.0096 -0.0783,-13.0096 0.16196,-0.88946 0.16195,-0.88946 0.6319,-0.6319 0.63189,-0.63189 h 37.69352 37.69351 l 0.4283,0.16435 0.4283,0.16436 0.38709,0.74854 0.38709,0.74855 v 13.65121 13.65121 l -0.64943,0.64943 -0.64944,0.64943 H 299.43413 261.50051 Z M 205.4973,199.4297 c -0.0901,-1.34607 -0.35782,-3.93285 -0.59504,-5.74841 l -0.43129,-3.30101 -0.46892,-1.50663 -0.46892,-1.50664 -1.26352,-1.9006 -1.26352,-1.90061 -2.203,-2.35971 c -1.21165,-1.29783 -2.92121,-3.30318 -3.79902,-4.45631 -0.87781,-1.15314 -2.32103,-3.26381 -3.20715,-4.69038 -0.88613,-1.42657 -1.85885,-2.86166 -2.16161,-3.18908 l -0.55048,-0.59531 h -0.50713 -0.50714 l -1.07939,0.92392 -1.0794,0.92393 -1.43888,0.53835 -1.43887,0.53835 -1.53231,0.16016 -1.53231,0.16016 -1.68002,-0.31543 -1.68002,-0.31543 -1.05833,0.44913 -1.05833,0.44914 -2.089,0.16209 -2.089,0.16209 -0.28506,0.45377 -0.28507,0.45378 1.18344,2.44362 1.18344,2.44362 0.76688,0.88643 c 0.42178,0.48754 1.07813,1.04739 1.45855,1.24411 0.38042,0.19673 1.94032,0.61655 3.46645,0.93296 1.52613,0.3164 3.50241,0.80842 4.39174,1.09337 l 1.61696,0.51811 1.0519,0.90039 1.05191,0.90038 1.49845,2.19911 c 0.82415,1.2095 1.64722,2.38694 1.82905,2.61652 0.18184,0.22959 0.88194,0.83686 1.5558,1.34949 l 1.2252,0.93207 2.52025,0.97652 2.52026,0.97652 1.21967,1.07359 1.21966,1.0736 0.70635,1.2306 c 0.38849,0.67683 1.0548,1.74771 1.48069,2.37972 l 0.77434,1.14912 1.21277,0.76911 c 0.66702,0.42301 1.386,0.76911 1.59774,0.76911 h 0.38498 z m 13.11134,-8.31168 c 2.0755,-1.84291 4.75925,-4.24652 5.96388,-5.34136 l 2.19024,-1.99061 0.15509,-0.61792 0.15509,-0.61792 -0.85445,-2.36963 -0.85445,-2.36963 0.17333,-0.92391 0.17333,-0.9239 0.57747,-0.40448 0.57748,-0.40448 h 0.87308 0.87308 l 1.25086,1.12448 c 0.68797,0.61846 1.31039,1.19716 1.38315,1.28599 0.0728,0.0888 0.52999,0.36535 1.01607,0.61446 l 0.88378,0.45294 0.43914,-0.19695 0.43914,-0.19696 4.7625,-0.15292 4.7625,-0.15292 v -3.96875 -3.96875 l -1.80948,-0.17885 -1.80947,-0.17885 -1.02912,-0.68105 -1.02913,-0.68104 h -2.12234 -2.12234 v -0.26886 -0.26887 l -0.85989,-0.36486 c -0.47295,-0.20067 -1.45521,-0.4917 -2.18282,-0.64672 -0.7276,-0.15502 -1.62057,-0.29974 -1.98437,-0.3216 -0.3638,-0.0219 -0.81029,-0.0266 -0.99219,-0.0105 l -0.33073,0.0293 v 0.54656 c 0,0.30061 0.12325,0.77686 0.27389,1.05833 l 0.2739,0.51177 h 0.38756 0.38757 v 0.30296 0.30296 l -1.78594,-0.15659 -1.78594,-0.15658 -1.30128,-0.451 -1.30129,-0.45099 -0.44427,0.54864 -0.44426,0.54865 -0.32444,2.46795 c -0.17844,1.35738 -0.60293,3.73068 -0.94332,5.274 l -0.61887,2.80603 -0.79091,1.55959 c -0.43499,0.85778 -1.46138,2.69069 -2.28085,4.07313 l -1.48995,2.51355 -0.38809,1.30479 -0.38809,1.30479 0.004,1.47333 c 0.002,0.81034 0.0754,1.74123 0.16315,2.06865 0.0877,0.32742 0.20369,0.59531 0.25764,0.59531 0.054,0 1.79624,-1.50783 3.87175,-3.35074 z m -7.45648,-10.69377 c 0.60099,-0.88501 1.37075,-2.22446 1.71056,-2.97657 l 0.61785,-1.36746 0.68054,-3.33765 c 0.3743,-1.83571 0.68054,-3.63683 0.68054,-4.0025 v -0.66485 l -0.3322,-0.27571 c -0.18272,-0.15164 -0.68874,-0.36405 -1.12448,-0.47202 -0.43575,-0.10797 -1.56618,-0.52054 -2.51207,-0.91682 l -1.71979,-0.72051 -2.38125,0.5097 -2.38125,0.50971 -1.88032,-0.15092 c -1.03418,-0.083 -2.23006,-0.25122 -2.65751,-0.37381 l -0.77718,-0.2229 -0.98051,0.39108 -0.98052,0.39109 v 0.46702 0.46702 l 1.60523,2.25671 1.60524,2.25671 2.43935,2.40903 c 1.34164,1.32497 2.67381,2.57327 2.96039,2.77399 0.28657,0.20072 1.29424,1.32994 2.23927,2.50938 0.94503,1.17943 1.80309,2.14554 1.90681,2.1469 0.10372,0.001 0.6803,-0.72162 1.2813,-1.60662 z m 77.35192,-19.49143 c 0.0792,-0.25466 0.50396,-2.77872 0.94402,-5.60901 l 0.80011,-5.146 -0.24168,-0.24168 -0.24168,-0.24168 -0.25829,0.15963 c -0.14205,0.0878 -1.05341,2.59995 -2.02523,5.58256 l -1.76696,5.42294 0.16572,0.26813 0.16571,0.26813 h 1.15718 1.15718 z m 21.47388,0.11309 0.13429,-0.34994 -1.84701,-5.36733 c -1.01585,-2.95203 -1.90832,-5.42865 -1.98326,-5.50358 -0.0749,-0.0749 -0.33233,-0.061 -0.57199,0.0309 l -0.43574,0.16721 0.16757,0.43667 c 0.0922,0.24017 0.51153,2.59065 0.93192,5.22329 0.42039,2.63264 0.84633,4.99498 0.94652,5.24964 l 0.18218,0.46302 h 1.17062 1.17062 z m -58.32627,-0.25869 c 0.2364,-0.17997 2.05562,-2.88219 4.0427,-6.00493 l 3.61287,-5.67773 -0.077,-0.39976 -0.077,-0.39976 -0.41689,-0.0803 -0.41689,-0.0803 -2.49117,2.59546 c -1.37015,1.4275 -3.68211,4.0221 -5.1377,5.76579 -1.45558,1.74368 -2.80497,3.37348 -2.99865,3.62176 l -0.35214,0.45143 0.17068,0.27618 0.17069,0.27617 1.77032,-0.008 1.77032,-0.008 z M 270.093,159.7422 c 0.28634,-0.76399 1.18786,-3.14863 2.00339,-5.29921 0.81552,-2.15058 1.48277,-4.08534 1.48277,-4.29948 v -0.38933 h -0.33323 c -0.18328,0 -0.46316,0.20836 -0.62195,0.46302 -0.15879,0.25466 -1.56585,2.64512 -3.1268,5.31214 l -2.83809,4.84913 0.14444,0.3764 0.14443,0.37639 h 1.31222 1.31221 z m 59.31324,1.02562 c 0,-0.19989 -1.25936,-2.60981 -2.79859,-5.35536 -1.53922,-2.74555 -2.92302,-5.14185 -3.0751,-5.3251 -0.15209,-0.18325 -0.381,-0.33318 -0.50871,-0.33318 -0.1277,0 -0.23218,0.16915 -0.23218,0.37589 0,0.20674 0.84272,2.67392 1.87272,5.48263 1.03,2.8087 1.93,5.19939 1.99999,5.31264 l 0.12727,0.20592 h 1.3073 1.3073 z m 17.85675,-0.16147 0.16089,-0.26033 -4.43222,-5.09014 c -2.43772,-2.79958 -4.7348,-5.35041 -5.10462,-5.66852 l -0.6724,-0.57837 -0.20003,0.12362 c -0.11002,0.068 -0.19935,0.32496 -0.1985,0.57104 l 0.002,0.4474 2.06241,3.57188 c 1.13433,1.96453 2.52822,4.37554 3.09753,5.35781 l 1.03512,1.78594 h 2.0447 2.04469 z m -62.41503,-21.10883 0.2886,-0.19439 1.87912,-5.37551 1.87912,-5.37551 -0.14551,-0.37918 -0.1455,-0.37917 h -0.3605 -0.36051 l -1.28723,1.91823 c -0.70797,1.05502 -2.33077,3.55771 -3.60622,5.56152 l -2.31899,3.6433 0.15027,0.3916 0.15027,0.3916 1.79424,-0.004 1.79424,-0.004 z m 28.78631,-0.0148 0.13427,-0.21724 -3.05305,-5.00828 c -1.67917,-2.75455 -3.33828,-5.3016 -3.68691,-5.66011 l -0.63387,-0.65184 -0.31593,0.31593 -0.31592,0.31592 1.53606,4.83383 c 0.84484,2.65861 1.70281,5.16125 1.90661,5.56144 l 0.37055,0.7276 h 1.96196 1.96197 z m 91.97197,20.14114 c -0.21828,-0.0756 -2.42094,-1.03345 -4.89479,-2.12866 -2.47385,-1.0952 -6.04573,-2.7645 -7.9375,-3.70956 -1.89177,-0.94505 -3.93002,-2.05516 -4.52945,-2.46691 -0.59943,-0.41175 -1.72005,-1.28655 -2.49027,-1.944 l -1.40039,-1.19535 -0.86595,-0.28579 -0.86596,-0.28579 -1.01347,0.2729 -1.01348,0.2729 -1.18656,0.80324 c -0.6526,0.44179 -1.59111,1.09956 -2.08558,1.46173 l -0.89902,0.65848 h -0.97972 c -0.53885,0 -1.34456,-0.12718 -1.79048,-0.28263 l -0.81074,-0.28262 -1.60647,-1.80757 c -0.88356,-0.99416 -1.71191,-2.08736 -1.84079,-2.42935 l -0.23433,-0.62179 0.20121,-0.53835 c 0.11067,-0.29609 0.36336,-0.65785 0.56154,-0.80391 0.19818,-0.14605 1.6003,-0.66211 3.11583,-1.14679 l 2.7555,-0.88123 0.63037,-0.63037 0.63036,-0.63036 -0.78373,-1.13913 c -0.43106,-0.62652 -1.43664,-2.52329 -2.23462,-4.21506 l -1.45087,-3.07593 -1.60742,-2.33297 c -0.88409,-1.28314 -2.99848,-3.99985 -4.69865,-6.03715 -1.70017,-2.03729 -3.31015,-4.06135 -3.57774,-4.49791 l -0.48652,-0.79375 -9.9e-4,-0.59532 -9.9e-4,-0.59531 0.52917,-0.52916 0.52917,-0.52917 h 1.59865 1.59866 l 2.0121,0.41561 c 1.10665,0.22859 3.30783,0.87202 4.8915,1.42986 l 2.87941,1.01424 2.03786,1.14983 2.03786,1.14983 1.7706,1.75669 1.7706,1.75668 1.20134,2.47665 1.20134,2.47665 0.5883,2.20929 0.5883,2.20929 0.5813,0.38089 0.5813,0.38088 1.28721,-0.51546 c 0.70797,-0.28351 2.00158,-0.82118 2.87471,-1.19484 l 1.5875,-0.67936 1.32292,0.0138 1.32291,0.0139 0.79375,0.3106 c 0.43657,0.17083 1.33354,0.63425 1.99329,1.02981 l 1.19953,0.7192 1.96954,0.41431 1.96955,0.4143 0.61328,0.40184 c 0.33731,0.22101 0.73918,0.67814 0.89304,1.01584 l 0.27976,0.61399 -0.30789,0.5753 -0.3079,0.5753 -0.66259,0.25192 -0.6626,0.25192 h -2.48639 -2.48639 l -1.42915,0.53471 -1.42914,0.53471 -0.45181,0.49924 -0.4518,0.49924 1.84716,0.97066 1.84716,0.97066 0.98577,0.97195 c 0.54217,0.53458 1.36636,1.56727 1.83152,2.29487 0.46516,0.72761 1.4529,2.45401 2.19498,3.83646 0.74208,1.38245 1.71457,3.42634 2.16109,4.54199 0.44653,1.11565 0.81187,2.31328 0.81187,2.66141 v 0.63296 l -0.33073,0.42073 c -0.1819,0.2314 -0.56885,0.48169 -0.8599,0.5562 -0.29104,0.0745 -0.70776,0.0737 -0.92604,-0.002 z"
       id="path5" /></g></svg>
